<?xml version="1.0" encoding="utf-8"?>
<!-- Generator: Adobe Illustrator 26.0.1, SVG Export Plug-In . SVG Version: 6.00 Build 0)  -->
<svg version="1.1" id="Layer_1" xmlns="http://www.w3.org/2000/svg" xmlns:xlink="http://www.w3.org/1999/xlink" x="0px" y="0px"
	 viewBox="0 0 3000 800" style="enable-background:new 0 0 3000 800;" xml:space="preserve">
<style type="text/css">
	.st0{fill:#FFFFFF;}
</style>
<g>
	<path class="st0" d="M895.29,706.09c-13.19,0-25.3-1.4-36.32-4.19c-11.02-2.79-16.92-6.52-17.69-11.18
		c-1.56-46.25-2.33-93.21-2.33-140.86c0-61.31,1.86-121.77,5.59-181.38c0.62-3.26,4.92-5.7,12.92-7.33
		c7.99-1.63,17.42-2.45,28.29-2.45c9.62,0,19.21,0.63,28.75,1.87s17.5,3.1,23.86,5.59c6.37,2.49,9.55,5.59,9.55,9.31l-0.24,6.05
		c14.12-3.72,27.47-5.59,40.05-5.59c20.33,0,38.53,4.07,54.59,12.22c16.07,8.15,29.73,18.9,40.98,32.25
		c11.25,13.35,19.82,28.25,25.73,44.71c5.9,16.45,8.85,32.98,8.85,49.6c0,14.12-2.29,27.7-6.87,40.74
		c-4.58,13.04-11.64,24.69-21.19,34.93c-9.54,10.25-21.77,18.36-36.67,24.34c-14.91,5.98-32.6,8.96-53.09,8.96
		c-16.92,0-35.86-2.33-56.81-6.99l1.63,70.78c0,4.34-2.41,7.88-7.22,10.6c-4.82,2.71-10.99,4.73-18.51,6.05
		C911.62,705.42,903.67,706.09,895.29,706.09z M960.02,569.18c11.48,0,20.95-3.03,28.4-9.08c7.45-6.06,12.96-13.97,16.53-23.75
		c3.57-9.78,5.36-20.18,5.36-31.2c0-13.19-2.37-26.04-7.1-38.53c-4.73-12.49-11.61-22.85-20.61-31.08
		c-9-8.23-19.95-12.34-32.83-12.34l-4.66,0.24c-1.71,41.76-2.56,83.75-2.56,125.96v19.79H960.02z"/>
	<path class="st0" d="M1349.77,682.1c-12.42,0-23.52-1.13-33.3-3.37c-9.77-2.25-15.06-5.48-15.83-9.67l-0.7-10.71
		c-21.74,6.21-41.37,9.31-58.91,9.31c-19.41,0-36.21-3.22-50.41-9.67c-14.2-6.44-25.93-15.17-35.16-26.19
		c-9.23-11.02-16.11-23.55-20.61-37.6c-4.51-14.04-6.75-28.6-6.75-43.65c0-17.7,2.91-35.2,8.73-52.5s14.43-33.02,25.84-47.15
		c11.41-14.12,25.42-25.46,42.03-33.99c16.61-8.53,35.63-12.8,57.04-12.8c9.62,0,19.63,0.93,30.04,2.79l0.7-13.5
		c0.62-3.41,5.67-6.05,15.14-7.92c9.46-1.86,20.26-2.79,32.36-2.79c9,0,17.81,0.55,26.43,1.63c8.61,1.09,15.68,2.72,21.19,4.89
		c5.51,2.17,8.27,4.89,8.27,8.15l-0.24,22.58c0,27.01,0.74,63.38,2.21,109.09c1.47,45.71,3.61,90.15,6.4,133.3v0.7
		c0,4.5-2.68,8.15-8.03,10.94s-12.22,4.86-20.61,6.17C1367.24,681.44,1358.62,682.1,1349.77,682.1z M1286.44,608.76
		c3.26,0,6.68-0.31,10.25-0.94c-3.72-57.43-5.59-108.26-5.59-152.51v-7.68c-12.57,1.25-23.05,6.06-31.43,14.43
		c-8.38,8.38-14.67,18.94-18.86,31.67c-4.19,12.73-6.29,25.93-6.29,39.58c0,12.73,1.9,24.88,5.7,36.44
		c3.8,11.56,9.58,20.95,17.35,28.17C1265.33,605.15,1274.95,608.76,1286.44,608.76z"/>
	<path class="st0" d="M1486.8,633.46c-13.97,0-27.09-1.55-39.34-4.65c-12.27-3.11-18.39-7.07-18.39-11.88l-0.24-44
		c0-105.55,3.8-198.3,11.41-278.24c0.47-2.95,4.23-5.16,11.3-6.64c7.06-1.47,15.48-2.21,25.26-2.21c9.93,0,20.06,0.7,30.39,2.09
		c10.32,1.4,18.93,3.46,25.84,6.17c6.91,2.72,10.37,6.02,10.37,9.9v0.47c-7.14,77.3-10.71,171.06-10.71,281.27v29.8
		c0,6.36-4.51,10.95-13.5,13.74C1510.16,632.06,1499.37,633.46,1486.8,633.46z"/>
	<path class="st0" d="M1674.83,713.79c-11.49,0-22.82-2.29-33.99-6.87c-11.18-4.58-21.27-11.99-30.27-22.23
		c-9-10.25-16.22-23.83-21.65-40.75c-5.44-16.92-8.15-37.8-8.15-62.63c0.15-20.33,0.61-40.51,1.4-60.54l-11.41,0.47
		c-6.05,0-10.44-2.6-13.15-7.8c-2.71-5.2-4.07-10.83-4.07-16.88c0-5.12,0.86-9.81,2.56-14.08c1.7-4.27,4.11-7.02,7.22-8.27
		c4.34-1.55,11.25-2.87,20.72-3.96c1.4-30.58,3.03-60.61,4.89-90.11c0.78-4.34,6.01-7.68,15.72-10.01
		c9.7-2.33,20.68-3.49,32.94-3.49c9,0,17.7,0.7,26.08,2.1c8.38,1.4,15.29,3.57,20.72,6.52c5.43,2.95,8.15,6.75,8.15,11.41
		c-0.31,5.44-1.71,17.15-4.19,35.16c-1.71,12.42-3.65,27.24-5.82,44.47c6.05,0.16,11.64,0.51,16.76,1.05
		c5.12,0.55,9,3.76,11.64,9.66c2.64,5.9,3.96,12.34,3.96,19.32c0,6.21-1.21,11.88-3.61,17c-2.41,5.13-6.17,7.69-11.29,7.69
		l-6.29-0.7c-4.19-0.47-10.1-0.85-17.7-1.17c-5.9,51.69-8.85,90.19-8.85,115.49c0,22.97,2.56,34.54,7.69,34.69
		c4.03,0,8.84-4.57,14.43-13.73c5.59-9.16,10.63-20.57,15.13-34.23c2.33-6.98,7.06-10.48,14.2-10.48c5.59,0,11.68,1.94,18.28,5.82
		c6.6,3.88,12.22,8.42,16.88,13.62c4.65,5.21,6.98,9.9,6.98,14.09c0,0.78-0.08,1.48-0.23,2.1c-3.42,12.42-8.54,23.71-15.37,33.87
		c-6.83,10.17-15.91,18.28-27.24,24.33C1706.57,710.76,1692.21,713.79,1674.83,713.79z"/>
</g>
<g>
	<path class="st0" d="M1806.08,625.03c-19.04-7.54-33.25-17.58-42.62-30.12c-9.38-12.53-15.06-26.65-17.05-42.34
		c-2-15.69-1.54-32.02,1.37-48.99c2.91-16.97,7.13-33.75,12.66-50.34c5.53-16.59,10.97-31.87,16.32-45.82
		c6.95-17.5,13.13-31.51,18.55-42.04l3.82-7.99c1.96-3.15,6.94-4.24,14.95-3.25c8,0.99,16.62,3.25,25.85,6.78
		c6.92,2.65,13.45,5.75,19.59,9.3c6.14,3.55,10.9,7.23,14.29,11.05c3.39,3.82,4.45,7.37,3.19,10.67l-3.78,8.38
		c-8.78,19.32-16.98,38.92-24.6,58.81c-10.69,27.91-17.91,51.04-21.65,69.39c-4.81,23.11-3.05,36.26,5.31,39.45
		c14.8,4.78,30.32-5.65,46.57-31.31c11.93-18.99,24.19-44.91,36.77-77.77c4.21-10.99,7.76-20.59,10.65-28.81l4.06-11.11
		c1.35-3.52,5.03-5.07,11.05-4.66c6.01,0.41,12.26,1.86,18.75,4.35c6.26,2.4,11.73,5.31,16.41,8.74c4.67,3.43,6.48,6.51,5.43,9.26
		c-2.31,6.04-5.11,13.67-8.38,22.87c-4.07,11.29-8.17,22.33-12.29,33.09c-2.82,7.36-5.52,14.08-8.1,20.15
		C1910.61,608.86,1861.57,646.28,1806.08,625.03z"/>
</g>
<g>
	<path class="st0" d="M1994.36,428.52c-3.38-3.97-7.01-8.39-10.88-13.28c-5.66-7.15-11.37-14.5-17.11-22.06
		c-4.65-6.17-8.56-11.26-11.74-15.27c-1.44-1.82-0.81-4.58,1.9-8.27c2.72-3.69,6.15-7.19,10.31-10.48c4.3-3.41,8.68-5.98,13.11-7.72
		c4.44-1.74,7.59-1.44,9.44,0.89l5.7,7.42c4.13,5.51,9.09,11.92,14.86,19.21c17.28,21.81,32.67,38.46,46.17,49.96
		c18.34,15.51,32.53,19.7,42.56,12.58c5.54-4.39,3.76-14.73-5.35-31.02c-7.17-12.95-18.1-28.69-32.78-47.22
		c-10.46-13.2-21.29-26.05-32.5-38.54l-4.84-5.43c-1.73-2.19-1.77-5.12-0.12-8.81c1.65-3.68,4.38-7.59,8.16-11.72
		c3.79-4.13,7.98-8.02,12.58-11.66c6.13-4.85,12.09-8.6,17.89-11.24c5.81-2.64,9.82-3,12.05-1.09l4.77,5.12
		c6.58,6.66,14.57,15.76,23.96,27.32c7.34,9.26,15.06,19.5,23.17,30.7c8.11,11.21,15.27,22.87,21.48,34.98
		c6.21,12.11,10.43,24.32,12.64,36.64c2.22,12.31,1.27,24.31-2.83,35.99c-4.1,11.68-12.44,22.62-25.02,32.82
		C2095.12,507.53,2049.26,490.92,1994.36,428.52z"/>
</g>
<path class="st0" d="M1748.66,286.2c14.12,3.52,26.91,12.12,35.52,23.85c2.86,3.9,5.36,8.5,4.89,13.31
	c-0.65,6.66-6.72,11.5-12.88,14.12c-8.89,3.78-19.26,4.58-28.24,1C1723.01,328.53,1724.76,296.35,1748.66,286.2z"/>
<path class="st0" d="M1793.74,284.19c-21.45-15.47-38-39.1-40.57-65.42c-2.57-26.32,10.94-54.67,35.07-65.51
	c8.5-3.82,18.93-5.26,26.84-0.34c6.39,3.97,9.86,11.21,12.7,18.18c13.03,32.07,19.41,66.5,22.67,100.97
	c1.3,13.69-1.94,28.5-18.37,27.39C1818.08,298.51,1804.99,292.3,1793.74,284.19z"/>
<path class="st0" d="M1856.56,142.02c-0.47-11.62,0.5-23.94,7.05-33.56c6.82-10.02,18.62-15.48,30.32-18.69
	c11.89-3.26,24.69-4.67,36.49-1.09c15.09,4.58,26.99,17.06,33.3,31.52c6.32,14.45,7.55,30.69,6.24,46.41
	c-1.47,17.64-5.98,34.86-10.48,51.98c-2.58,9.83-5.22,19.79-10.31,28.58c-5.09,8.79-13.03,16.43-22.89,18.86
	c-19.03,4.7-31.07-11.45-39.04-25.65c-10.96-19.54-19.98-40.31-25.38-62.09C1858.91,166.42,1857.05,154.26,1856.56,142.02z"/>
<path class="st0" d="M2038.06,158.36c13.73,6.46,22.05,21.37,24.03,36.41c2.02,15.43-1.92,31.57-10.83,44.33
	c-5.57,7.97-13.27,14.78-22.58,17.61c-9.3,2.83-20.27,1.12-27.19-5.71c-6.77-6.68-8.7-16.78-9.48-26.25
	c-1.29-15.55-3.12-40.12,5-54.24C2004.83,156.89,2024.25,151.86,2038.06,158.36z"/>
</svg>
