<svg class="svg-icon" style="width: 1em; height: 1em;vertical-align: middle;fill: currentColor;overflow: hidden;" viewBox="0 0 1024 1024" version="1.1" xmlns="http://www.w3.org/2000/svg"><path d="M153.6 614.4c-57.4464 0-102.4-67.6864-102.4-154.1632s44.9536-154.1632 102.4-154.1632S256 373.76 256 460.2368 211.0464 614.4 153.6 614.4z m0-257.1264c-24.1664 0-51.2 44.032-51.2 102.9632S129.4336 563.2 153.6 563.2s51.2-44.032 51.2-102.9632-27.0336-102.9632-51.2-102.9632zM358.2976 409.6C300.9536 409.6 256 342.1184 256 256s44.9536-153.6 102.2976-153.6 102.2976 67.4816 102.2976 153.6-44.9536 153.6-102.2976 153.6z m0-256C334.1824 153.6 307.2 197.376 307.2 256s26.9824 102.4 51.0976 102.4 51.0976-43.776 51.0976-102.4-26.9824-102.4-51.0976-102.4zM614.4 409.6c-57.4464 0-102.4-67.4816-102.4-153.6s44.9536-153.6 102.4-153.6 102.4 67.4816 102.4 153.6-44.9536 153.6-102.4 153.6z m0-256c-24.1664 0-51.2 43.776-51.2 102.4s27.0336 102.4 51.2 102.4 51.2-43.776 51.2-102.4-27.0336-102.4-51.2-102.4zM819.2 614.4c-57.4464 0-102.4-67.6864-102.4-154.1632s44.9536-154.1632 102.4-154.1632 102.4 67.6864 102.4 154.1632S876.6464 614.4 819.2 614.4z m0-257.1264c-24.1664 0-51.2 44.032-51.2 102.9632S795.0336 563.2 819.2 563.2s51.2-44.032 51.2-102.9632-27.0336-102.9632-51.2-102.9632zM665.6 921.6c-44.4416 0-74.496-15.0528-100.9664-28.3136-24.576-12.288-45.7728-22.8864-78.2336-22.8864-32.3072 0-53.504 10.5984-78.08 22.8864C381.7472 906.5472 351.6416 921.6 307.2 921.6c-28.4672 0-55.2448-15.5136-73.5744-42.5472-32.1024-47.4112-32.6144-119.3472-1.4336-197.376C288.3584 541.2864 380.9792 460.8 486.3488 460.8s198.0416 80.4864 254.1568 220.8768c31.1808 78.0288 30.6688 149.9648-1.4336 197.376-18.2784 27.0336-45.1072 42.5472-73.5744 42.5472z m-179.2-102.4c44.4928 0 74.5984 15.0528 101.12 28.3136 24.5248 12.288 45.7216 22.8864 78.08 22.8864 11.1616 0 22.528-7.3216 31.1808-20.0192 22.1184-32.6144 20.6848-88.576-3.7376-149.6576C645.0688 580.8128 569.7536 512 486.4 512s-158.6688 68.7616-206.6432 188.7232c-24.4224 61.0816-25.8048 117.0432-3.7376 149.6576 8.6016 12.7488 19.968 20.0192 31.1808 20.0192 32.3584 0 53.6064-10.5984 78.2336-22.9376 26.5216-13.2608 56.6272-28.3136 100.9664-28.3136z" fill="" /></svg>